<?xml version="1.0" encoding="utf-8"?>
<!-- Generator: Adobe Illustrator 22.1.0, SVG Export Plug-In . SVG Version: 6.00 Build 0)  -->
<svg version="1.1" baseProfile="basic" id="Layer_1"
	 xmlns="http://www.w3.org/2000/svg" xmlns:xlink="http://www.w3.org/1999/xlink" x="0px" y="0px" viewBox="0 0 600 600"
	 xml:space="preserve">
<g>
	<path fill="#FFFFFF" d="M351.9,48.3c1.7,0.4,3.5,0.7,5.2,0.7c8.7,0,16.8-5.8,19.2-14.7l21-76.9c2.9-10.6-3.3-21.6-13.9-24.5
		c-10.6-2.9-21.6,3.3-24.5,13.9l-21,76.9C335,34.5,341.3,45.4,351.9,48.3z"/>
	<path fill="#FFFFFF" d="M280.2,58.8c-10.6-2.9-21.6,3.3-24.5,13.9l-7,25.2c-2.9,10.6,3.3,21.6,13.9,24.5c1.7,0.4,3.5,0.7,5.2,0.7
		c8.7,0,16.8-5.8,19.2-14.7l7-25.2C297,72.5,290.8,61.7,280.2,58.8z"/>
	<path fill="#FFFFFF" d="M311.4,20l7-25.2c2.9-10.6-3.3-21.6-13.9-24.5c-10.6-2.9-21.6,3.3-24.5,13.9l-7,25.2
		C270,20,276.3,31,286.9,33.9c1.7,0.4,3.5,0.7,5.2,0.7C300.9,34.7,308.9,28.9,311.4,20z"/>
	<path fill="#FFFFFF" d="M311.1-54.6c1.7,0.4,3.5,0.7,5.2,0.7c8.7,0,16.8-5.8,19.2-14.7l3.5-12.8c2.9-10.6-3.3-21.6-13.9-24.5
		c-10.6-2.9-21.6,3.3-24.5,13.9L297-79.1C294.3-68.5,300.5-57.5,311.1-54.6z"/>
	<path fill="#FFFFFF" d="M188.8,392.8c-7.3-27.6,0.7-56.9,21-76.9l122.8-121.4l13.1-47.9c2.9-10.6-3.3-21.6-13.9-24.5
		c-10.6-2.9-21.6,3.3-24.5,13.9l-17.3,63.1l-27.1-7.4c1.6-2,2.9-4.5,3.6-7.1l3.5-12.8c2.9-10.6-3.3-21.6-13.9-24.5
		c-10.6-2.9-21.6,3.3-24.5,13.9L228,174c-0.7,2.8-0.9,5.4-0.6,8l-20.7-5.7l34.5-126.1c3.9-14.2-4.5-28.7-18.6-32.6
		c-14.2-3.9-28.7,4.5-32.6,18.6l-34.5,126.1l-28.9-7.8l33.4-121.7C162.8,22,156.6,11,146,8.1c-10.6-2.9-21.6,3.3-24.5,13.9
		L88.1,143.8L74.6,140c-13.9-3.8-28.9,0.1-39.2,10.3s-14.4,25.1-10.6,39l71.2,271.2c3.6,13.9,14.5,25,28.4,28.7
		c3.5,1,7.1,1.5,10.6,1.5c10.4,0,20.7-4.1,28.4-11.8l48.3-47.9C201,421.1,192.7,407.7,188.8,392.8z"/>
	<path fill="#FFFFFF" d="M525.3,485.4c1.9,0.6,3.9,1,5.9,1.2c1.7,0.3,3.5,0.3,5.2,0.3c0.3,0,0.6,0,0.9,0
		c21.9-0.4,39.6-18.4,39.6-40.5c0-4.2-0.6-8.1-1.7-12l-70.8-269.5c-3.6-13.9-14.5-25-28.4-28.7c-13.9-3.8-28.9,0.1-39,10.3
		L237.4,343.7c-10.3,10.2-14.4,25-10.7,39c3.6,13.9,14.5,25,28.4,28.7l7.1,1.9l-10.3,37.9l-1.7,6.4c-3.9,14.2,4.5,28.7,18.6,32.6
		c2.3,0.6,4.6,1,7,1c11.6,0,22.3-7.7,25.5-19.6l1.7-6.4l10.3-37.9l25.7,7l-10.3,37.9l-21.3,77.9c-3.9,14.2,4.5,28.7,18.6,32.6
		c2.3,0.6,4.6,1,7,1c11.6,0,22.3-7.7,25.5-19.6l21.3-77.9l10.3-37.9l22.3,6.1l-1.9,7c-2.9,10.6,3.3,21.6,13.9,24.5
		c1.7,0.4,3.5,0.7,5.2,0.7c8.7,0,16.8-5.8,19.2-14.7l1.9-7l19.2,5.2l-10.3,37.9l-44.7,163.4c-2.9,10.6,3.3,21.6,13.9,24.5
		c1.7,0.4,3.5,0.7,5.2,0.7c8.7,0,16.8-5.8,19.2-14.7l44.7-163.4l10.3-37.9L525.3,485.4z"/>
	<path fill="#FFFFFF" d="M234.2-25.1c2.3,0.6,4.6,1,7,1c11.6,0,22.3-7.7,25.5-19.6l17.3-63c3.9-14.2-4.5-28.7-18.6-32.6
		c-14.2-3.9-28.7,4.5-32.6,18.6l-17.3,63C211.7-43.5,220.1-29,234.2-25.1z"/>
	<path fill="#FFFFFF" d="M252.2,551.2c-14.2-3.9-28.7,4.5-32.6,18.6l-21,76.9c-3.9,14.2,4.5,28.7,18.6,32.6c2.3,0.6,4.6,1,7,1
		c11.6,0,22.3-7.7,25.5-19.6l21-76.9C274.7,569.7,266.4,555,252.2,551.2z"/>
	<path fill="#FFFFFF" d="M369.7,687.8c-10.6-2.9-21.6,3.3-24.5,13.9l-3.5,12.8c-2.9,10.6,3.3,21.6,13.9,24.5
		c1.7,0.4,3.5,0.7,5.2,0.7c8.7,0,16.8-5.8,19.2-14.7l3.5-12.8C386.7,701.6,380.5,690.7,369.7,687.8z"/>
	<path fill="#FFFFFF" d="M400.8,574.4c1.7,0.4,3.5,0.7,5.2,0.7c8.7,0,16.8-5.8,19.2-14.7l7-25.2c2.9-10.6-3.3-21.6-13.9-24.5
		c-10.6-2.9-21.6,3.3-24.5,13.9l-7,25.2C383.9,560.7,390.2,571.5,400.8,574.4z"/>
	<path fill="#FFFFFF" d="M393.9,599.3c-10.6-2.9-21.6,3.3-24.5,13.9l-7,25.2c-2.9,10.6,3.3,21.6,13.9,24.5c1.7,0.4,3.5,0.7,5.2,0.7
		c8.7,0,16.8-5.8,19.2-14.7l7-25.2C410.8,613,404.5,602.2,393.9,599.3z"/>
</g>
</svg>
