<?xml version="1.0" encoding="utf-8"?>
<!-- Generator: Adobe Illustrator 22.1.0, SVG Export Plug-In . SVG Version: 6.00 Build 0)  -->
<svg version="1.1" baseProfile="basic" id="Layer_1"
	 xmlns="http://www.w3.org/2000/svg" xmlns:xlink="http://www.w3.org/1999/xlink" x="0px" y="0px" viewBox="0 0 723.8 122.1"
	 xml:space="preserve">
<g>
	<polygon fill="#FFFFFF" points="18.8,1.4 0,1.4 0,120.9 49.7,120.9 49.7,103.8 18.8,103.8 	"/>
	<polygon fill="#FFFFFF" points="115.7,18.5 118.6,1.4 57.9,1.4 57.9,120.9 98.5,120.9 101.3,103.8 76.7,103.8 76.7,68.8 
		107.2,68.8 110.1,51.7 76.7,51.7 76.7,18.5 	"/>
	<path fill="#FFFFFF" d="M135.4,1.4l-10.2,60.8l-9.4,58.7H133l3.2-21.7h23l3.2,21.7h18.9L162.4,1.4H135.4z M138.7,83l9-60.4l9,60.4
		H138.7z"/>
	<path fill="#FFFFFF" d="M221.2,1.4h-29.7v73.5l7.3,46h22.4c18.8,0,28-10.4,28-29.5V31C249.2,11.8,239.9,1.4,221.2,1.4z M230.4,92.2
		c0,8.5-3.6,11.6-9.6,11.6h-10.6V18.4h10.6c6,0,9.6,3.1,9.6,11.6V92.2z"/>
	<polygon fill="#FFFFFF" points="259.8,120.9 311.1,120.9 311.1,103.8 278.6,103.8 278.6,68.8 304.4,68.8 304.4,51.7 278.6,51.7 
		278.6,18.5 311.1,18.5 311.1,1.4 259.8,1.4 	"/>
	<path fill="#FFFFFF" d="M435.3,57.2c8.4-3.9,12.1-11.8,12.1-24.1v-4.3c0-18.4-8.4-27.5-27.8-27.5h-28.3v102.9H379V87.9
		c0-12.5-3.1-21.5-12.5-25.4c8.4-3.9,12.3-12,12.3-24.2v-9.4c0-18.4-8.4-27.5-27.8-27.5h-28.3v119.5h18.7V72.2h6.5
		c8.5,0,12.3,4.1,12.3,15.2v18.8c0,9.7,0.7,11.6,1.7,14.7h0.3H381h10.2h29.5h2.9v-0.1c16.9-1,25.6-10.8,25.6-28.2v-9.7
		C449.3,70.2,445.4,61.1,435.3,57.2z M360,42.5c0,9.6-4.3,12.6-11.3,12.6h-7.3V18.4h9c6.7,0,9.6,3.8,9.6,12.3L360,42.5L360,42.5z
		 M410.1,18.5h9c6.7,0,9.6,3.8,9.6,12.3v6.7c0,9.6-4.3,12.6-11.3,12.6h-7.3L410.1,18.5L410.1,18.5z M430.5,92
		c0,8.9-3.4,11.8-9.7,11.8H410V67.1h8.4c8.5,0,12.1,3.4,12.1,14.5V92z"/>
	<path fill="#FFFFFF" d="M487.5,0C469.1,0,459,10.9,459,30v62.1c0,19.1,10.1,30,28.5,30c8.2,0,14.8-2.2,19.6-6.3l9-58.7v-27
		C516.1,10.9,506,0,487.5,0z M497.3,93.4c0,8.5-3.8,11.8-9.7,11.8c-6,0-9.7-3.2-9.7-11.8V28.9c0-8.5,3.8-11.8,9.7-11.8
		c6,0,9.7,3.2,9.7,11.8V93.4z"/>
	<path fill="#FFFFFF" d="M542.2,1.4l-17.3,107.7l-1.8,11.8h17.2l3.2-21.7h23l3.2,21.7h19L569.6,1.4H542.2z M545.9,83l9-60.4l9,60.4
		H545.9z"/>
	<path fill="#FFFFFF" d="M653.8,87.9c0-12.5-3.1-21.5-12.5-25.4c8.4-3.9,12.3-12,12.3-24.2v-9.4c0-18.4-8.4-27.5-27.8-27.5h-28.3V51
		l10.7,69.9h8.1V72.2h6.5c8.5,0,12.3,4.1,12.3,15.2v18.8c0,9.7,0.7,11.6,1.7,14.7h19.1c-1.9-4.4-2-8.7-2-14.5L653.8,87.9L653.8,87.9
		z M634.9,42.5c0,9.6-4.3,12.6-11.3,12.6h-7.3V18.4h9c6.7,0,9.6,3.8,9.6,12.3V42.5z"/>
	<path fill="#FFFFFF" d="M695.8,1.4h-29.7v119.5h29.7c18.8,0,28-10.4,28-29.5V31C723.8,11.8,714.6,1.4,695.8,1.4z M705,92.2
		c0,8.5-3.6,11.6-9.6,11.6h-10.6V18.4h10.6c6,0,9.6,3.1,9.6,11.6V92.2z"/>
</g>
</svg>
